<svg width="42" height="42" viewBox="0 0 42 42" fill="none" xmlns="http://www.w3.org/2000/svg">
<path d="M20.15 3.66322C20.6964 3.44559 21.3036 3.44559 21.85 3.66322C23.6112 4.36461 23.9552 7.06552 26.0334 7.21588C27.4967 7.32176 28.9328 6.10185 30.4012 6.46754C30.9934 6.61505 31.5049 6.99263 31.8255 7.519C32.8076 9.13192 31.5401 11.5026 33.142 12.8409C34.255 13.7703 36.0939 13.6501 37.0615 14.7894C37.4689 15.2693 37.6691 15.8953 37.6168 16.5265C37.4619 18.404 35.0681 19.5783 35.5941 21.6018C35.9581 23.0025 37.4943 23.9873 37.6168 25.4735C37.6691 26.1048 37.4689 26.7307 37.0615 27.2106C35.8456 28.6421 33.2164 28.1706 32.4583 30.1108C31.926 31.4727 32.6095 33.1935 31.8255 34.4809C31.5049 35.0073 30.9934 35.385 30.4012 35.5325C28.5779 35.9865 26.7272 34.0279 24.9727 35.1326C23.72 35.9212 23.2712 37.7711 21.85 38.3367C21.3036 38.5544 20.6964 38.5544 20.15 38.3367C18.7289 37.7711 18.28 35.9212 17.0273 35.1326C15.2945 34.0417 13.3912 35.9788 11.5988 35.5325C11.0066 35.385 10.4951 35.0073 10.1746 34.4809C9.19251 32.8681 10.4598 30.4973 8.85798 29.159C7.74519 28.2296 5.90615 28.35 4.93857 27.2106C4.53112 26.7307 4.33097 26.1048 4.38314 25.4735C4.50599 23.9873 6.0417 23.0025 6.40588 21.6018C6.92664 19.5995 4.53607 18.3766 4.38314 16.5265C4.33097 15.8953 4.53112 15.2693 4.93857 14.7894C6.15433 13.3575 8.78324 13.8294 9.54167 11.8892C10.0741 10.5273 9.39064 8.80647 10.1746 7.519C10.4951 6.99263 11.0066 6.61505 11.5988 6.46754C13.0673 6.10185 14.5033 7.32177 15.9666 7.21588C18.0448 7.06556 18.3888 4.36461 20.15 3.66322Z" stroke="#225458" stroke-width="2" stroke-linejoin="round"/>
<path d="M15.75 23.3333C15.75 23.3333 17.2812 23.3333 18.8125 26.25C18.8125 26.25 23.6765 18.9583 28 17.5" stroke="#225458" stroke-width="2" stroke-linecap="round" stroke-linejoin="round"/>
</svg>
