<svg width="42" height="42" viewBox="0 0 42 42" fill="none" xmlns="http://www.w3.org/2000/svg">
<path d="M26.25 21C26.25 19.067 27.817 17.5 29.75 17.5C33.6159 17.5 36.75 20.6341 36.75 24.5C36.75 28.3659 33.6159 31.5 29.75 31.5C27.817 31.5 26.25 29.933 26.25 28V21Z" stroke="#225458" stroke-width="2"/>
<path d="M15.75 21C15.75 19.067 14.183 17.5 12.25 17.5C8.384 17.5 5.25 20.6341 5.25 24.5C5.25 28.3659 8.384 31.5 12.25 31.5C14.183 31.5 15.75 29.933 15.75 28V21Z" stroke="#225458" stroke-width="2"/>
<path d="M5.25 24.5V19.25C5.25 10.5515 12.3015 3.5 21 3.5C29.6986 3.5 36.75 10.5515 36.75 19.25V27.7308C36.75 31.2454 36.75 33.0026 36.1333 34.373C35.4314 35.9326 34.1826 37.1814 32.623 37.8833C31.2526 38.5 29.4954 38.5 25.9808 38.5H21" stroke="#225458" stroke-width="2" stroke-linecap="round" stroke-linejoin="round"/>
</svg>
