<svg width="48" height="48" viewBox="0 0 48 48" fill="none" xmlns="http://www.w3.org/2000/svg">
<path d="M25.102 27.2162C22.0632 30.4814 10.4206 36.0214 14.0557 42.055C15.3614 44.2222 19.1205 44 21.7224 44H26.2776C33.1074 44 36.5222 44 38.858 42.0572C41.1938 40.1144 41.6942 36.8578 42.6952 30.3448L43.2972 26.427C44.0032 21.8324 44.3562 19.5353 43.4876 17.4988C42.619 15.4622 40.692 14.0689 36.8378 11.2821L33.958 9.2C29.1634 5.73334 26.7662 4 24 4C21.2338 4 18.8366 5.73334 14.042 9.2L11.1623 11.2821C7.30806 14.0689 5.38094 15.4622 4.51234 17.4988C3.64372 19.5353 3.99674 21.8324 4.70278 26.427L5.30486 30.3448C6.01686 34.978 6.47562 37.9634 7.52204 40M24.3602 36.2518C29.0968 35.3348 32.3416 32.4196 33.8678 27.71C35.5966 22.3762 33.2534 15.7675 27.3504 14.2388C27.3504 14.2388 29.1704 16.4084 27.9946 18.3117C25.728 22.391 19.249 21.0348 16.6507 26.233C15.1206 29.135 15.5845 32.57 17.7877 34.7126C19.172 36.0588 22.0856 36.6922 24.3602 36.2518Z" stroke="#225458" stroke-width="2.5" stroke-linecap="round" stroke-linejoin="round"/>
</svg>
