<svg class="icon icon-cart-empty" width="18" height="18" viewBox="0 0 18 18" fill="none" xmlns="http://www.w3.org/2000/svg">
<path d="M12.3335 6.50008V4.00008C12.3335 2.15913 10.8411 0.666748 9.00015 0.666748C7.1592 0.666748 5.66681 2.15913 5.66681 4.00008V6.50008M1.99348 7.62672L1.49348 12.9601C1.35132 14.4765 1.28023 15.2347 1.53185 15.8203C1.75289 16.3348 2.14024 16.7601 2.63183 17.0282C3.19142 17.3334 3.95295 17.3334 5.47602 17.3334H12.5243C14.0473 17.3334 14.8089 17.3334 15.3685 17.0282C15.86 16.7601 16.2474 16.3348 16.4684 15.8203C16.7201 15.2347 16.649 14.4765 16.5068 12.9601L16.0068 7.62672C15.8868 6.3462 15.8267 5.70595 15.5388 5.22188C15.2851 4.79557 14.9104 4.45434 14.4623 4.24162C13.9535 4.00008 13.3104 4.00008 12.0243 4.00008L5.97602 4.00008C4.68989 4.00008 4.04682 4.00008 3.53799 4.24162C3.08987 4.45434 2.71515 4.79557 2.46153 5.22188C2.17355 5.70594 2.11353 6.3462 1.99348 7.62672Z" stroke="#16181D" stroke-width="1.3" stroke-linecap="round" stroke-linejoin="round"/>
</svg>