<svg width="48" height="48" viewBox="0 0 48 48" fill="none" xmlns="http://www.w3.org/2000/svg">
<path d="M24 44C35.0457 44 44 35.0457 44 24C44 12.9543 35.0457 4 24 4C12.9543 4 4 12.9543 4 24C4 35.0457 12.9543 44 24 44Z" stroke="#225458" stroke-width="2.5" stroke-linecap="round" stroke-linejoin="round"/>
<path d="M26 16C27.6569 16 29 14.6569 29 13C29 11.3431 27.6569 10 26 10C24.3431 10 23 11.3431 23 13C23 14.6569 24.3431 16 26 16Z" stroke="#225458" stroke-width="2.5" stroke-linecap="round" stroke-linejoin="round"/>
<path d="M12 25L12.4189 25.47C13.1967 26.3428 14.508 26.104 15 25C15.492 23.896 16.8033 23.6572 17.5811 24.53L18 25" stroke="#225458" stroke-width="2.5" stroke-linecap="round" stroke-linejoin="round"/>
<path d="M31.6826 36L31.9042 35.3098C32.3158 34.028 31.3484 32.8546 30 33C28.6516 33.1454 27.6842 31.972 28.0958 30.6902L28.3174 30" stroke="#225458" stroke-width="2.5" stroke-linecap="round" stroke-linejoin="round"/>
<path d="M38.018 26H38" stroke="#225458" stroke-width="2.5" stroke-linecap="round" stroke-linejoin="round"/>
<path d="M20.0179 36H20" stroke="#225458" stroke-width="2.5" stroke-linecap="round" stroke-linejoin="round"/>
<path d="M16.0179 16H16" stroke="#225458" stroke-width="2.5" stroke-linecap="round" stroke-linejoin="round"/>
<path d="M39 10L11 38" stroke="#225458" stroke-width="2.5"/>
</svg>
