<svg width="48" height="48" viewBox="0 0 48 48" fill="none" xmlns="http://www.w3.org/2000/svg">
<path d="M32 6C36.6778 6 39.0166 6 40.7242 7.07294C41.6146 7.63242 42.3676 8.38534 42.927 9.27578C44 10.9833 44 13.3222 44 18C44 22.6778 44 25.0166 42.927 26.7242C42.3676 27.6146 41.6146 28.3676 40.7242 28.927C39.0166 30 36.6778 30 32 30H16C11.3222 30 8.98334 30 7.27578 28.927C6.38534 28.3676 5.63242 27.6146 5.07294 26.7242C4 25.0166 4 22.6778 4 18C4 13.3222 4 10.9833 5.07294 9.27578C5.63242 8.38534 6.38534 7.63242 7.27578 7.07294C8.98334 6 11.3222 6 16 6H32Z" stroke="#225458" stroke-width="2.5" stroke-linecap="round"/>
<path d="M14 24H34" stroke="#225458" stroke-width="2.5" stroke-linecap="round"/>
<path d="M36 14H36.018" stroke="#225458" stroke-width="2.5" stroke-linecap="round" stroke-linejoin="round"/>
<path d="M13.6 36C13.6 36 15.2 39.75 12 42" stroke="#225458" stroke-width="2.5" stroke-linecap="round" stroke-linejoin="round"/>
<path d="M34.4 36C34.4 36 32.8 39.75 36 42" stroke="#225458" stroke-width="2.5" stroke-linecap="round" stroke-linejoin="round"/>
<path d="M24 36V42" stroke="#225458" stroke-width="2.5" stroke-linecap="round" stroke-linejoin="round"/>
</svg>
