<svg width="42" height="42" viewBox="0 0 42 42" fill="none" xmlns="http://www.w3.org/2000/svg">
<path d="M29.75 35C31.683 35 33.25 33.433 33.25 31.5C33.25 29.567 31.683 28 29.75 28C27.817 28 26.25 29.567 26.25 31.5C26.25 33.433 27.817 35 29.75 35Z" stroke="#225458" stroke-width="2"/>
<path d="M12.25 35C14.183 35 15.75 33.433 15.75 31.5C15.75 29.567 14.183 28 12.25 28C10.317 28 8.75 29.567 8.75 31.5C8.75 33.433 10.317 35 12.25 35Z" stroke="#225458" stroke-width="2"/>
<path d="M19.25 29.75H26.25M23.625 12.25H25.2751C27.5683 12.25 28.715 12.25 29.6872 12.8004C30.6593 13.3508 31.3075 14.367 32.6039 16.3994C33.5129 17.8244 34.4671 18.8589 35.8089 19.7792C37.1597 20.7056 37.8021 21.1585 38.1586 21.8855C38.5 22.5816 38.5 23.4062 38.5 25.0553C38.5 27.2293 38.5 28.3164 37.8892 29.0071C37.863 29.0369 37.8362 29.0657 37.8086 29.0938C37.1656 29.75 36.154 29.75 34.1303 29.75H33.25" stroke="#225458" stroke-width="2" stroke-linecap="round" stroke-linejoin="round"/>
<path d="M22.75 12.25L24.4898 16.5997C25.3423 18.731 25.7686 19.7965 26.6574 20.3982C27.5462 21 28.6939 21 30.9892 21H36.75" stroke="#225458" stroke-width="2" stroke-linecap="round" stroke-linejoin="round"/>
<path d="M8.52175 29.75C6.15447 29.75 4.97084 29.75 4.23542 28.9812C3.5 28.2123 3.5 26.9748 3.5 24.5V12.25C3.5 9.77513 3.5 8.53769 4.23542 7.76885C4.97084 7 6.15447 7 8.52175 7H17.7282C20.0956 7 21.2791 7 22.0146 7.76885C22.75 8.53769 22.75 9.77513 22.75 12.25V29.75H15.2174" stroke="#225458" stroke-width="2" stroke-linecap="round" stroke-linejoin="round"/>
</svg>
